<svg width="263" height="175" viewBox="0 0 263 175" fill="none" xmlns="http://www.w3.org/2000/svg">
<g clip-path="url(#clip0_322_209)">
<path d="M131.5 175C204.125 175 263 168.815 263 161.187C263 153.558 204.125 147.373 131.5 147.373C58.8745 147.373 0 153.558 0 161.187C0 168.815 58.8745 175 131.5 175Z" fill="#DCF6F9"/>
<path d="M135.467 74.762C135.993 73.8207 137.427 76.7606 137.427 76.7606C137.427 76.7606 136.355 74.4357 136.705 73.5759C136.984 72.8919 138.322 74.853 138.854 75.6782L138.878 75.664C138.427 74.8122 137.4 72.7163 137.876 72.1499C138.416 71.5098 139.971 74.3729 140.25 74.8875H140.259C137.989 69.5912 140.918 72.5844 142.178 75.0208C142.4 74.4749 144.542 73.281 144.891 73.3767C145.293 73.4849 144.375 75.2279 144.203 75.6075C143.787 76.5332 144 77.4713 144.641 78.3248C144.891 78.6573 139.547 81.0922 139.547 81.0922C138.731 80.3782 138 79.5727 137.368 78.6919C137.28 78.6061 137.204 78.5097 137.14 78.4048C137.053 78.2683 136.937 78.091 136.804 77.8823C136.168 76.8908 135.171 75.2922 135.467 74.762Z" fill="#FCBDB6"/>
<path d="M140.723 78.9507C140.709 78.9508 140.695 78.9472 140.683 78.9403C140.671 78.9334 140.661 78.9235 140.654 78.9115C140.654 78.9021 140.205 78.1114 140.778 77.4698C141.306 76.8815 141.693 75.8853 141.697 75.8759C141.704 75.8561 141.72 75.8402 141.739 75.8317C141.759 75.8231 141.781 75.8227 141.801 75.8304C141.81 75.834 141.82 75.8396 141.827 75.8468C141.835 75.854 141.841 75.8627 141.846 75.8723C141.85 75.8819 141.853 75.8923 141.853 75.9029C141.853 75.9135 141.852 75.924 141.848 75.9339C141.83 75.9747 141.444 76.9662 140.902 77.5765C140.405 78.1334 140.792 78.8237 140.797 78.8315C140.807 78.8498 140.81 78.8715 140.804 78.8918C140.799 78.912 140.785 78.9292 140.767 78.9397C140.754 78.9478 140.738 78.9517 140.723 78.9507Z" fill="#F9A6A0"/>
<path d="M155.802 72.6174C155.802 72.6174 150.621 82.3661 149.062 81.089C147.502 79.812 144.992 76.9128 144.992 76.9128C144.992 76.9128 139.328 79.2927 138.734 81.6601C138.734 81.6601 143.618 91.6487 151.527 91.5436C159.436 91.4385 160.916 75.0428 160.916 75.0428L155.802 72.6174Z" fill="#49ADB7"/>
<path d="M198.405 104.701C197.732 102.411 196.913 101.046 196.913 101.046C196.913 101.046 191.837 101.076 191.591 101.517C191.024 102.541 190.365 104.811 189.818 105.845C189.581 106.294 188.887 107.856 189.305 108.148C189.669 108.404 190.814 107.42 191.301 106.893C191.722 110.208 193.822 114.856 193.459 107.847H193.472C193.574 108.551 194.151 112.475 195.047 111.968C195.835 111.521 195.542 108.694 195.385 107.533L195.416 107.524C195.679 108.691 196.39 111.493 197.001 110.826C197.768 109.99 197.521 106.885 197.521 106.885C197.521 106.885 197.926 110.845 198.939 109.988C199.626 109.403 198.792 106.242 198.556 105.125C198.523 104.978 198.472 104.836 198.405 104.701Z" fill="#FCBDB6"/>
<path d="M187.042 101.366C187.012 102.51 180.011 102.965 171.352 102.698C162.693 102.431 155.772 101.247 155.802 100.103C155.832 98.9594 162.799 98.2864 171.459 98.5547C180.12 98.8229 187.072 100.222 187.042 101.366Z" fill="#333333"/>
<path d="M184.924 68.9731C184.924 68.9731 183.393 62.9755 172.095 62.9143C155.803 62.8264 157.312 77.6204 155.805 100.103C155.805 100.103 165.683 96.0242 187.045 101.358C187.042 101.366 188.46 78.1318 184.924 68.9731Z" fill="#49ADB7"/>
<path d="M189.092 68.1133L181.714 72.1468C181.714 72.1468 165.205 75.7456 160.918 75.0475C156.631 74.3494 155.804 72.6174 155.804 72.6174C155.804 72.6174 160.373 64.4172 168.137 63.17C168.866 63.0523 169.622 62.966 170.407 62.9158C171.715 62.8267 173.028 62.8524 174.331 62.9927C184.17 64.0878 189.092 68.1133 189.092 68.1133Z" fill="#49ADB7"/>
<path d="M173.646 61.5416L172.794 58.8228L172.545 58.0306L171.086 53.3743L170.894 58.0055L170.779 60.7854L170.743 61.6655C170.717 62.2632 170.35 62.3887 169.901 62.908C169.72 63.1182 168.557 64.3937 169.876 64.9695C171.519 65.6864 174.593 64.6008 175.761 63.1763C175.751 63.1747 173.922 62.4217 173.646 61.5416Z" fill="#FCBDB6"/>
<path d="M191.272 103.34C190.593 95.9504 189.035 85.3844 185.468 77.0164C184.641 75.0773 184.298 74.3494 183.652 73.292C183.133 72.4401 184.063 70.567 185.528 69.6743C186.902 68.8366 189.043 68.9731 189.382 69.3888C189.958 70.0932 190.573 71.4455 191.529 73.5917C194.853 81.0467 196.845 90.6776 197.652 103.096L191.272 103.34Z" fill="#FCBDB6"/>
<path d="M167.33 51.6266C167.15 52.4638 167.15 53.3294 167.33 54.1666C167.628 55.5785 169.082 52.1067 169.082 52.1067L167.33 51.6266Z" fill="#5C305D"/>
<path d="M167.157 54.5745C167.52 51.8416 169.677 49.868 171.965 50.1661C174.253 50.4642 175.823 52.9194 175.459 55.6569C175.095 58.3945 172.939 60.3634 170.651 60.0653C168.363 59.7673 166.794 57.3058 167.157 54.5745Z" fill="#FCBDB6"/>
<path d="M171.088 54.9039C171.077 54.897 171.068 54.8876 171.061 54.8764C171.054 54.8652 171.05 54.8526 171.049 54.8396C171.047 54.8173 171.054 54.7953 171.069 54.7783C171.083 54.7612 171.104 54.7506 171.126 54.7486C171.327 54.7206 171.532 54.7594 171.709 54.8589C171.886 54.9585 172.025 55.1132 172.105 55.2992C172.114 55.3195 172.115 55.3425 172.108 55.3636C172.1 55.3847 172.085 55.4021 172.065 55.4122C172.045 55.4199 172.022 55.4203 172.002 55.4135C171.981 55.4066 171.963 55.3928 171.952 55.3745C171.739 55.1373 171.454 54.9764 171.14 54.9164C171.122 54.918 171.104 54.9136 171.088 54.9039Z" fill="#080435"/>
<path d="M171.456 55.9801C171.402 56.1731 171.244 56.2939 171.103 56.2594C170.961 56.2248 170.888 56.035 170.945 55.8405C171.002 55.6459 171.156 55.5267 171.298 55.5612C171.44 55.5957 171.509 55.7871 171.456 55.9801Z" fill="#080435"/>
<path d="M167.948 54.6545C167.937 54.6521 167.927 54.647 167.919 54.6395C167.911 54.6321 167.905 54.6226 167.902 54.6121C167.895 54.5922 167.895 54.5706 167.901 54.5504C167.907 54.5302 167.919 54.5123 167.935 54.4992C167.998 54.4468 168.07 54.4076 168.148 54.384C168.226 54.3604 168.308 54.3529 168.389 54.3621C168.471 54.3712 168.549 54.3966 168.62 54.4369C168.691 54.4772 168.753 54.5315 168.802 54.5964C168.814 54.6135 168.821 54.6341 168.821 54.6552C168.821 54.6764 168.814 54.697 168.802 54.7141C168.797 54.7214 168.79 54.7276 168.782 54.7323C168.775 54.7369 168.766 54.7399 168.757 54.7411C168.748 54.7423 168.739 54.7416 168.731 54.7391C168.722 54.7366 168.714 54.7324 168.707 54.7266C168.6 54.6639 168.48 54.6243 168.357 54.6102C168.233 54.5962 168.108 54.608 167.989 54.6451C167.983 54.6493 167.976 54.6523 167.969 54.6539C167.962 54.6556 167.955 54.6557 167.948 54.6545Z" fill="#080435"/>
<path d="M168.722 55.5142C168.748 55.7134 168.65 55.8891 168.503 55.9064C168.357 55.9236 168.22 55.7777 168.188 55.58C168.157 55.3824 168.261 55.2051 168.406 55.1878C168.551 55.1706 168.697 55.3149 168.722 55.5142Z" fill="#080435"/>
<path d="M178.25 54.3548C178.25 54.3548 176.849 57.3356 174.866 57.5584C174.866 57.5584 176.469 55.2851 173.087 53.8983C173.087 53.8983 176.192 53.4151 178.25 54.3548Z" fill="#501506"/>
<path d="M175.452 56.0021C175.027 56.2688 174.488 56.1825 174.245 55.8076C174.003 55.4326 174.152 54.9118 174.578 54.6451C175.003 54.3784 175.542 54.4662 175.783 54.8412C176.024 55.2161 175.876 55.7354 175.452 56.0021Z" fill="#FCBDB6"/>
<path d="M173.086 53.8983C173.086 53.8983 173.357 56.4084 172.842 56.879C172.327 57.3497 168.919 57.5568 167.328 56.9496C167.312 57.7327 167.578 58.4954 168.079 59.0998C168.579 59.7041 169.28 60.1101 170.055 60.2442C170.593 60.3359 171.143 60.3359 171.681 60.2442C172.793 60.0512 173.876 59.5978 174.334 58.5765C174.474 58.2628 174.068 56.3566 174.068 56.3566C174.068 56.3566 173.91 55.2365 174.575 54.6529C174.577 54.6451 173.814 53.972 173.086 53.8983Z" fill="#501506"/>
<path d="M173.087 53.8983C173.087 53.8983 173.368 52.1475 171.984 52.0157C170.601 51.8839 169.01 51.6596 168.465 52.0157C167.92 52.3718 167.269 53.7681 167.269 53.7681C167.269 53.7681 166.506 51.1419 167.899 50.0186C169.292 48.8953 173.747 47.4175 176.589 49.3738C179.432 51.3301 178.252 54.3485 178.252 54.3485C178.252 54.3485 176.219 53.7445 173.087 53.8983Z" fill="#501506"/>
<path d="M175.013 49.3801C175.013 49.3801 177.108 47.6701 176.634 46.3993C176.16 45.1286 173.943 45.5349 173.086 45.7326C172.229 45.9303 172.084 47.4426 172.771 48.4184C173.458 49.3942 175.013 49.3801 175.013 49.3801Z" fill="#501506"/>
<path d="M171.788 156.496C171.299 156.469 170.812 156.579 170.382 156.814C169.953 157.048 169.598 157.398 169.357 157.823C169.124 158.26 168.75 158.605 168.295 158.804C166.783 159.431 162.401 159.99 164.041 161.409C164.987 162.224 169.409 161.698 170.659 161.698C171.908 161.698 173.082 162.236 174.011 161.409C174.567 160.914 174.518 159.346 174.358 158.021C174.303 157.558 174.067 157.136 173.7 156.847C173.334 156.558 172.867 156.426 172.403 156.479C172.256 156.498 172.109 156.506 171.961 156.504L171.788 156.496Z" fill="#333333"/>
<path d="M187.23 155.972C187.23 155.972 187.175 158.181 185.654 158.804C184.134 159.426 179.76 159.99 181.4 161.409C182.346 162.224 186.768 161.696 188.017 161.696C189.267 161.696 190.441 162.236 191.37 161.409C192.393 160.499 191.37 155.972 191.37 155.972C191.37 155.972 190.291 156.527 189.322 156.502C187.928 156.468 187.23 155.972 187.23 155.972Z" fill="#333333"/>
<path d="M160.489 100.418C160.158 100.452 159.849 100.596 159.611 100.828C159.374 101.059 159.222 101.364 159.181 101.692C159.023 103.037 158.99 105.876 159.811 111.769C161.008 120.427 165.538 152.017 166.29 156.228C166.559 157.734 166.866 158.661 169.077 158.978L172.01 158.921C174.399 159.265 175.319 156.725 175.336 155.109L173.415 106.446L181.05 100.69C177.009 100.223 172.944 99.984 168.875 99.9729C166.074 99.9808 163.275 100.129 160.489 100.418Z" fill="#24555E"/>
<path d="M167.673 102.033L184.503 155.454C184.837 156.538 185.506 157.49 186.415 158.173C187.324 158.857 188.426 159.237 189.565 159.262L190.576 159.279C192.965 159.32 194.791 157.137 194.357 154.762L185.15 104.56C185.016 103.964 184.677 101.327 184.093 101.16C180.934 100.268 167.364 99.8239 167.673 102.033Z" fill="#24555E"/>
<path d="M175.196 125.912L171.572 115.038C170.769 112.608 169.089 110.562 166.858 109.293L166.997 109.05C169.29 110.351 171.015 112.454 171.839 114.95L175.462 125.822L175.196 125.912Z" fill="#333333"/>
<path d="M179.358 64.2744C179.358 64.2744 181.114 62.6711 179.001 62.1048C178.166 61.882 176.922 59.8441 175.761 60.0198C174.6 60.1955 173.916 66.6575 169.256 68.6483C169.256 68.6483 168.107 69.6351 169.975 69.5896C171.844 69.5441 179.358 64.2744 179.358 64.2744Z" fill="#FF7B69"/>
<path d="M169.255 68.6562C169.255 68.6562 166.922 66.3892 167.33 64.2744C167.738 62.1597 166.552 60.3524 165.973 61.3047C165.395 62.2569 164.727 61.6671 164.595 62.8735C164.462 64.0799 166.263 69.9582 167.903 69.9582C169.543 69.9582 169.255 68.6562 169.255 68.6562Z" fill="#FF7B69"/>
<path d="M169.783 69.1017C169.783 69.1017 171.289 69.7716 170.728 71.3577C170.167 72.9437 170.95 73.5838 170.95 73.5838C170.95 73.5838 169.123 73.6717 168.902 71.9726C168.845 71.4596 168.893 70.9403 169.045 70.4466C169.196 69.9529 169.447 69.4952 169.783 69.1017Z" fill="#FF7B69"/>
<path d="M168.926 69.1017C168.926 69.1017 167.012 69.7465 166.93 70.9764C166.848 72.2064 167.945 72.4997 168.331 71.7608C168.717 71.0219 169.516 69.5943 169.516 69.5943L168.926 69.1017Z" fill="#FF7B69"/>
<path d="M174.336 58.5687C174.336 58.5687 174.323 60.2943 173.086 61.2592C171.849 62.224 172.669 63.068 171.58 64.4407C170.491 65.8134 171.788 65.8448 169.861 66.8442C167.934 67.8435 166.482 66.9383 166.868 65.4087C167.254 63.8791 165.573 64.2854 166.362 62.3511C167.151 60.4167 167.726 61.6012 167.06 59.5429C166.394 57.4846 167.336 56.9465 167.336 56.9465C167.336 56.9465 168.401 57.0186 169.261 57.1708C170.121 57.323 170.893 57.0563 171.493 57.2462C172.094 57.436 174.336 58.5687 174.336 58.5687Z" fill="#501506"/>
<path d="M168.17 57.8501C169.063 58.0644 169.985 58.1359 170.9 58.0619C170.9 58.0619 170.691 59.3672 169.249 59.1068C168.409 58.9561 168.17 57.8501 168.17 57.8501Z" fill="white"/>
<path d="M197.652 100.429C197.652 100.429 193.253 100.9 190.973 100.429C190.973 100.429 190.678 101.586 191.154 102.114C191.154 102.114 196.424 102.51 197.652 102.114C197.652 102.114 198.557 101.247 197.652 100.429Z" fill="#333333"/>
<path d="M194.794 103.073H194.874C195.744 103.073 196.448 102.371 196.448 101.506V101.212C196.448 100.347 195.744 99.645 194.874 99.645H194.794C193.925 99.645 193.22 100.347 193.22 101.212V101.506C193.22 102.371 193.925 103.073 194.794 103.073Z" fill="#8BC0CC"/>
<path d="M189.093 68.1133C189.093 68.1133 192.822 70.2924 196.449 84.6126C200.075 98.9328 197.35 99.1916 197.35 99.1916C197.35 99.1916 192.466 99.2842 190.89 98.7288C189.315 98.1735 188.475 85.3436 185.337 80.1242C182.198 74.9047 181.07 66.9163 189.093 68.1133Z" fill="#49ADB7"/>
<path d="M168.877 78.3656C168.876 78.2194 168.817 78.0795 168.713 77.9765C168.609 77.8736 168.468 77.8161 168.321 77.8165C168.249 77.8163 168.177 77.8303 168.109 77.8578C168.042 77.8853 167.981 77.9257 167.93 77.9766C167.878 78.0276 167.837 78.0882 167.809 78.1549C167.781 78.2217 167.767 78.2932 167.767 78.3656C167.767 78.4379 167.781 78.5094 167.809 78.5762C167.837 78.6429 167.878 78.7035 167.93 78.7545C167.981 78.8055 168.042 78.8458 168.109 78.8733C168.177 78.9008 168.249 78.9148 168.321 78.9146C168.468 78.9151 168.609 78.8575 168.713 78.7546C168.817 78.6517 168.876 78.5117 168.877 78.3656Z" fill="#5C305D"/>
<path d="M168.877 85.0535C168.876 84.9073 168.817 84.7674 168.713 84.6644C168.609 84.5615 168.468 84.5039 168.321 84.5044C168.249 84.5042 168.177 84.5182 168.109 84.5457C168.042 84.5731 167.981 84.6135 167.93 84.6645C167.878 84.7155 167.837 84.7761 167.809 84.8428C167.781 84.9096 167.767 84.9811 167.767 85.0535C167.767 85.1258 167.781 85.1975 167.809 85.2643C167.837 85.3311 167.878 85.3918 167.929 85.4428C167.981 85.4939 168.042 85.5342 168.109 85.5616C168.176 85.589 168.248 85.603 168.321 85.6025C168.394 85.603 168.466 85.5891 168.533 85.5617C168.601 85.5343 168.662 85.4939 168.714 85.4429C168.765 85.3919 168.806 85.3312 168.834 85.2644C168.863 85.1976 168.877 85.1259 168.877 85.0535Z" fill="#5C305D"/>
<path d="M168.877 92.9822C168.877 92.9098 168.863 92.8381 168.834 92.7713C168.806 92.7044 168.765 92.6438 168.714 92.5928C168.662 92.5418 168.601 92.5014 168.533 92.474C168.466 92.4466 168.394 92.4327 168.321 92.4331C168.248 92.4327 168.176 92.4466 168.109 92.4741C168.042 92.5015 167.981 92.5418 167.929 92.5929C167.878 92.6439 167.837 92.7046 167.809 92.7714C167.781 92.8382 167.767 92.9099 167.767 92.9822C167.767 93.0545 167.781 93.1261 167.809 93.1928C167.837 93.2596 167.878 93.3202 167.93 93.3711C167.981 93.4221 168.042 93.4625 168.109 93.49C168.177 93.5175 168.249 93.5315 168.321 93.5313C168.468 93.5317 168.609 93.4742 168.713 93.3713C168.817 93.2683 168.876 93.1284 168.877 92.9822Z" fill="#5C305D"/>
<path d="M144.185 51.8824C144.185 51.8824 150.732 47.2324 152.062 47.7219C153.521 48.2647 158.816 56.1935 160.291 62.0342C161.121 65.3287 160.11 66.0237 158.448 66.6042L151.14 69.1535L144.185 51.8824Z" fill="#24555E"/>
<path d="M145.047 51.7851C144.318 51.6925 139.229 52.8127 135.692 50.7528C131.878 48.5298 129.548 43.0358 127.027 44.7756C124.574 46.4621 129.407 56.2656 129.705 56.8555C129.707 56.8591 129.708 56.863 129.708 56.8671C129.709 56.8711 129.708 56.8751 129.707 56.8789C129.705 56.8827 129.703 56.8863 129.701 56.8892C129.698 56.8922 129.695 56.8946 129.691 56.8963C129.13 57.1504 121.938 60.6113 120.567 62.919C119.041 65.4903 121.887 67.1187 121.887 67.1187C121.249 67.6725 119.201 70.8023 123.996 72.3664C124.007 72.3706 124.016 72.3791 124.021 72.39C124.026 72.4008 124.026 72.4132 124.022 72.4245C123.844 73.1759 122.633 76.7654 127.934 76.5504C127.934 76.5504 127.562 80.3517 131.27 79.823C134.977 79.2943 150.402 70.7333 151.143 69.2037C152.926 65.4981 148.216 52.1883 145.047 51.7851Z" fill="#FF4B42"/>
<path d="M156.515 88.7903L156.367 88.7825C156.604 84.3898 158.014 76.5787 158.028 76.5003L158.174 76.5269C158.16 76.6054 156.752 84.4071 156.515 88.7903Z" fill="#5C305D"/>
<path d="M187.131 84.5216C186.501 81.8264 184.653 77.8871 184.634 77.8478L184.768 77.7851C184.787 77.8243 186.649 81.7777 187.276 84.4887L187.131 84.5216Z" fill="#5C305D"/>
<path d="M48.8028 67.8969C52.3603 69.5959 56.2234 77.9812 56.2234 77.9812C56.2234 77.9812 51.8404 80.2011 51.6182 80.2748C51.3961 80.3485 42.8506 71.2698 42.8506 71.2698C42.8506 71.2698 47.2604 67.1579 48.8028 67.8969Z" fill="#FCBDB6"/>
<path d="M39.1144 153.305C39.1144 153.305 39.2231 155.398 40.6615 155.95C42.1 156.502 46.2372 156.924 44.7326 158.303C43.8708 159.1 39.691 158.713 38.5157 158.744C37.3404 158.775 36.2485 159.315 35.3537 158.556C34.369 157.72 35.215 153.402 35.215 153.402C35.215 153.402 36.2438 153.901 37.1561 153.852C38.47 153.791 39.1144 153.305 39.1144 153.305Z" fill="#333333"/>
<path d="M49.6768 89.7928C49.6768 89.7928 50.2172 99.234 47.6791 117.44C45.8483 130.584 43.6237 143.839 42.5287 150.194C42.351 151.287 41.8088 152.289 40.9893 153.038C40.1699 153.787 39.1211 154.24 38.0118 154.323L36.7971 154.405C34.352 154.561 32.3085 152.522 32.4204 150.035L34.333 107.185L34.7096 93.0889L49.6768 89.7928Z" fill="#8BC0CC"/>
<path d="M25.6426 153.667C25.6426 153.667 25.7529 155.758 27.1913 156.311C28.6297 156.863 32.7669 157.287 31.2624 158.673C30.399 159.469 26.2208 159.083 25.0455 159.114C23.8702 159.146 22.7783 159.685 21.8834 158.924C20.8988 158.088 21.7432 153.771 21.7432 153.771C21.7432 153.771 22.7721 154.271 23.6843 154.223C24.9951 154.154 25.6426 153.667 25.6426 153.667Z" fill="#333333"/>
<path d="M36.1987 90.1552C36.1987 90.1552 36.7391 99.5948 34.2009 117.803C32.3687 130.946 30.1456 144.201 29.0506 150.556C28.8739 151.649 28.3329 152.652 27.5147 153.401C26.6965 154.151 25.6487 154.605 24.54 154.69L23.3253 154.772C20.8817 154.929 18.8383 152.889 18.9486 150.401L20.8628 107.552L21.2378 93.456L36.1987 90.1552Z" fill="#8BC0CC"/>
<path d="M19.9486 100.953C20.0101 102.092 26.9438 102.365 35.4987 101.863C44.0536 101.361 50.8629 100.004 50.803 98.8653C50.7432 97.7263 43.8362 97.2416 35.2813 97.7389C26.7264 98.2362 19.8888 99.8144 19.9486 100.953Z" fill="#333333"/>
<path d="M21.171 68.6248C21.171 68.6248 22.5228 62.6084 33.6915 62.2475C49.7977 61.7283 48.7059 76.5065 50.8029 98.8653C50.8029 98.8653 34.8747 97.058 19.9343 100.673C19.9343 100.673 17.9224 77.8478 21.171 68.6248Z" fill="#49ADB7"/>
<path d="M17.0244 67.878L24.4292 71.7012C24.4292 71.7012 40.4425 72.7178 44.6648 71.9083C48.8871 71.0988 49.9663 67.9659 49.9663 67.9659C49.9663 67.9659 45.3234 63.4335 37.6129 62.3981C36.8882 62.2988 36.1377 62.2339 35.3615 62.2036C34.0658 62.1501 32.7678 62.2105 31.4827 62.384C21.7824 63.7379 17.0244 67.878 17.0244 67.878Z" fill="#49ADB7"/>
<path d="M32.1198 60.9219L32.8902 58.189L33.1139 57.3936L34.431 52.717L34.7461 57.3261L34.9352 60.092L34.9951 60.9674C35.0345 61.562 35.4031 61.6781 35.86 62.1832C36.0459 62.3872 37.2291 63.6265 35.9404 64.2352C34.3349 64.9945 31.2675 63.9936 30.0732 62.6068C30.0827 62.6005 31.8709 61.8051 32.1198 60.9219Z" fill="#FCBDB6"/>
<path d="M49.4797 99.8239C49.4797 99.8239 40.1291 97.3545 21.0184 101.601L20.9443 104.358L49.1346 104.593L49.4797 99.8239Z" fill="#8BC0CC"/>
<path d="M16.878 68.049C16.2856 68.9401 17.6311 70.9011 19.8825 72.4323C22.1338 73.9635 24.4404 74.4812 25.0312 73.5917C25.622 72.7021 24.2781 70.738 22.0267 69.2084C19.7753 67.6788 17.4688 67.1595 16.878 68.049Z" fill="#333333"/>
<path d="M37.1535 50.1174C37.4963 50.8995 37.6707 51.7444 37.6655 52.5977C37.6655 54.0363 35.5527 50.9332 35.5527 50.9332L37.1535 50.1174Z" fill="#501506"/>
<path d="M35.6292 59.008C37.791 58.263 38.8121 55.555 37.91 52.9594C37.0079 50.3639 34.5242 48.8637 32.3624 49.6087C30.2007 50.3537 29.1795 53.0617 30.0816 55.6572C30.9837 58.2528 33.4675 59.753 35.6292 59.008Z" fill="#FCBDB6"/>
<path d="M29.6981 54.2858L31.6202 53.6802C31.8296 53.6162 32.0218 53.5059 32.1825 53.3576C32.3432 53.2093 32.4682 53.0267 32.5481 52.8236C32.8223 52.1145 33.2398 51.6941 35.0847 51.3866C37.4227 50.9991 38.6705 49.3095 38.6705 48.0497C38.6705 46.7633 37.3124 46.1672 36.2694 46.9971C35.2265 47.827 35.4281 46.2785 34.2765 46.3554C32.1243 46.4966 32.0629 48.1846 30.3377 48.4827C28.0753 48.8734 24.4012 51.3976 27.1237 54.9462L29.6981 54.2858Z" fill="#501506"/>
<path d="M34.1728 54.063C34.1821 54.054 34.1893 54.0429 34.1937 54.0306C34.198 54.0184 34.1995 54.0053 34.198 53.9924C34.1952 53.9705 34.184 53.9505 34.1666 53.9367C34.1492 53.9229 34.1271 53.9165 34.105 53.9187C33.904 53.9313 33.7129 54.0098 33.5615 54.1421C33.4102 54.2744 33.3071 54.4529 33.2685 54.6498C33.2656 54.6604 33.2649 54.6714 33.2664 54.6823C33.2678 54.6932 33.2715 54.7037 33.2771 54.7132C33.2826 54.7226 33.29 54.7309 33.2988 54.7376C33.3076 54.7442 33.3177 54.749 33.3283 54.7517C33.3495 54.7556 33.3714 54.752 33.3902 54.7413C33.4089 54.7307 33.4233 54.7138 33.4307 54.6937C33.5882 54.4197 33.8326 54.2056 34.1255 54.085C34.1433 54.0829 34.1598 54.0752 34.1728 54.063Z" fill="#080435"/>
<path d="M34.032 55.1863C34.1234 55.3636 34.3014 55.4546 34.4306 55.3902C34.5598 55.3259 34.5882 55.1267 34.5015 54.9494C34.4149 54.7721 34.2337 54.6796 34.1029 54.7454C33.9722 54.8113 33.9422 55.0074 34.032 55.1863Z" fill="#080435"/>
<path d="M37.1644 53.197C37.1744 53.1928 37.1832 53.1858 37.1896 53.177C37.196 53.1681 37.1998 53.1577 37.2006 53.1468C37.2037 53.126 37.2001 53.1047 37.1901 53.086C37.1802 53.0674 37.1646 53.0524 37.1455 53.0433C37.0749 53.0044 36.9971 52.9803 36.9168 52.9726C36.8365 52.965 36.7554 52.9738 36.6787 52.9987C36.602 53.0236 36.5313 53.0639 36.4709 53.1172C36.4105 53.1705 36.3618 53.2356 36.3278 53.3084C36.3182 53.3275 36.3151 53.3492 36.3191 53.3701C36.3231 53.3911 36.3339 53.4102 36.3499 53.4245C36.3558 53.4309 36.3629 53.436 36.3709 53.4395C36.3789 53.4431 36.3876 53.4449 36.3963 53.4449C36.4051 53.4449 36.4137 53.4431 36.4217 53.4395C36.4297 53.436 36.4369 53.4309 36.4428 53.4245C36.534 53.3421 36.6416 53.2796 36.7586 53.2413C36.8755 53.2029 36.9993 53.1894 37.1219 53.2017C37.1361 53.2058 37.1513 53.2041 37.1644 53.197Z" fill="#080435"/>
<path d="M36.5875 54.1901C36.6033 54.3878 36.734 54.54 36.879 54.529C37.0239 54.518 37.1279 54.347 37.1121 54.1493C37.0964 53.9516 36.9672 53.7979 36.8222 53.8089C36.6773 53.8199 36.5717 53.9908 36.5875 54.1901Z" fill="#080435"/>
<path d="M27.125 54.9462C27.125 54.9462 29.0818 57.5834 31.048 57.403C31.048 57.403 29.0361 55.5016 32.0327 53.481C32.0327 53.4763 28.9274 53.6206 27.125 54.9462Z" fill="#501506"/>
<path d="M30.1675 56.0005C30.6402 56.1762 31.138 55.9832 31.2956 55.5706C31.4531 55.158 31.2058 54.678 30.741 54.5023C30.2763 54.3266 29.7705 54.518 29.6114 54.9306C29.4523 55.3432 29.7028 55.8232 30.1675 56.0005Z" fill="#FCBDB6"/>
<path d="M32.0333 53.4763C32.0333 53.4763 32.2759 55.9754 32.8715 56.3362C33.467 56.6971 36.8102 56.2201 38.2281 55.3118C38.403 56.07 38.2998 56.8654 37.9372 57.5545C37.5746 58.2435 36.9765 58.7807 36.2509 59.0691C35.7475 59.2622 35.2147 59.3683 34.6754 59.3829C33.5584 59.4158 32.4193 59.1868 31.7686 58.2847C31.5717 58.0086 31.5796 56.0648 31.5796 56.0648C31.5796 56.0648 31.5024 54.94 30.7461 54.496C30.7414 54.5023 31.3433 53.6896 32.0333 53.4763Z" fill="#501506"/>
<path d="M35.7978 46.8747C35.6685 46.8764 35.542 46.8376 35.436 46.7639C35.33 46.6901 35.2499 46.5851 35.207 46.4636L35.3157 46.4307C35.3157 46.448 35.4575 46.8637 35.9869 46.7445L36.0137 46.8543C35.9428 46.8695 35.8703 46.8763 35.7978 46.8747Z" fill="#501506"/>
<path d="M35.6088 50.6053L35.582 50.5551C35.9907 50.3301 36.3774 50.0675 36.7368 49.7707C37.252 49.3409 37.8397 48.6898 37.7641 48.0215C37.7184 47.6575 37.6065 47.4316 37.4301 47.3328C37.1433 47.1759 36.7195 47.3673 36.3445 47.5383C36.2878 47.565 36.2311 47.5916 36.176 47.6152L36.1539 47.5634L36.3209 47.4881C36.7069 47.3108 37.1449 47.11 37.4584 47.2826C37.6538 47.3924 37.7735 47.6308 37.8208 48.0136C37.9831 49.3409 35.7049 50.5551 35.6088 50.6053Z" fill="white"/>
<path d="M29.4678 49.1353V49.0789C31.9429 48.911 32.8251 47.3249 32.8346 47.3093L32.8834 47.3359C32.8724 47.3516 31.976 48.9643 29.4678 49.1353Z" fill="white"/>
<path d="M34.8906 56.8963C34.8906 56.8963 36.4661 56.9888 37.372 56.4335C37.372 56.4335 36.6993 58.8526 34.8906 56.8963Z" fill="white"/>
<path d="M37.9128 78.775C37.9128 78.775 27.4468 76.1849 26.0415 77.4447C24.488 78.8362 21.8018 91.3146 22.8527 99.3281C23.4435 103.842 25.0584 104.217 27.4106 104.126L37.7852 103.722L37.9128 78.775Z" fill="#24555E"/>
<path d="M36.7613 79.0119C37.6262 78.5413 44.5268 77.4431 47.9204 73.1383C51.5787 68.4961 51.7647 60.503 55.7806 61.4333C59.6736 62.3354 58.4936 76.9317 58.418 77.8118C58.4173 77.8172 58.4178 77.8226 58.4193 77.8279C58.4209 77.8331 58.4236 77.8379 58.4272 77.842C58.4307 77.8462 58.4351 77.8495 58.44 77.8519C58.4449 77.8542 58.4503 77.8555 58.4558 77.8557C59.2813 77.8981 69.9568 78.6888 72.8132 80.8961C75.9894 83.356 73.2433 86.7807 73.2433 86.7807C74.3115 87.1588 78.4141 90.0595 73.2071 94.3612C73.1965 94.3728 73.1906 94.3879 73.1906 94.4036C73.1906 94.4193 73.1965 94.4344 73.2071 94.4459C73.8026 95.2962 77.0875 99.1791 70.3712 101.506C70.3712 101.506 72.7156 106.065 67.83 107.222C62.9444 108.38 39.4711 105.265 37.7932 103.719C33.7143 99.9776 33.0069 81.0687 36.7613 79.0119Z" fill="#FF4B42"/>
<path d="M17.0244 95.1708C17.0244 95.1708 18.2564 89.3504 18.7181 89.2265C19.7815 88.9425 22.0045 88.8547 23.0727 88.599C23.5359 88.4844 25.1209 88.2068 25.2942 88.6507C25.4517 89.0382 24.289 89.8556 23.6934 90.1788C26.6286 91.302 30.5264 93.7133 24.081 92.3485C24.0801 92.3521 24.0801 92.3558 24.081 92.3594C24.7018 92.6104 28.6342 94.0161 28.3349 94.9307C28.1096 95.6273 24.3883 94.424 23.361 94.0208L23.3468 94.0475C24.3552 94.5495 27.4526 95.6414 27.1186 96.4195C26.8334 97.0816 22.5213 95.6492 22.5213 95.6492C22.5213 95.6492 25.9716 97.1694 25.1744 97.6322C24.4434 98.0574 21.1727 96.7239 20.1786 96.3238C19.1482 95.9002 17.0244 95.1708 17.0244 95.1708Z" fill="#FCBDB6"/>
<path d="M47.1817 71.2965C46.6759 69.6476 45.0626 67.6003 45.0469 67.5799L45.1918 67.467C45.2076 67.4874 46.8414 69.5614 47.3566 71.2431L47.1817 71.2965Z" fill="#333333"/>
<path d="M33.7944 121.506L33.6133 121.483C33.6227 121.405 34.6625 113.667 35.4456 110.889C36.2333 108.084 39.8727 105.663 39.9089 105.639L40.0098 105.796C39.9735 105.821 36.3861 108.203 35.622 110.942C34.8422 113.705 33.8055 121.431 33.7944 121.506Z" fill="#333333"/>
<path d="M63.097 77.4431C63.097 77.4431 64.9073 77.6894 64.6836 79.0543C64.3984 80.7941 62.8702 81.8389 62.6969 81.0545C62.6622 80.8976 62.9411 79.2519 62.9411 79.2519C62.9411 79.2519 61.3388 82.6375 60.5952 82.0962C59.8515 81.555 61.2773 78.6605 61.2773 78.6605C61.2773 78.6605 59.3395 81.8233 58.829 81.1283C58.3186 80.4333 59.5916 77.7977 59.5916 77.7977C59.5916 77.7977 57.901 80.9792 57.3307 80.1603C56.7604 79.3414 58.0413 77.8557 58.4068 77.1184C58.7518 76.4202 59.4119 76.3967 60.2091 76.745C60.2091 76.745 61.2285 76.7152 61.6838 77.0587C61.8587 77.1874 62.1375 77.1042 62.2935 77.1435C62.5676 77.2259 62.836 77.326 63.097 77.4431Z" fill="#FCBDB6"/>
<path d="M7.08798 83.6038C10.6643 75.2655 16.8671 68.8224 16.9758 68.7C16.9758 68.7 18.17 67.7039 20.2969 69.3276C24.1521 72.2738 23.9426 74.0482 23.9426 74.0482C23.9426 74.0482 15.2774 85.5006 14.2202 87.2106C13.5207 88.3385 6.07336 85.9759 7.08798 83.6038Z" fill="#FCBDB6"/>
<path d="M20.3993 88.9567C20.3993 88.9567 16.177 86.9329 13.0811 82.9622C11.2945 80.6702 7.09426 83.6038 7.09426 83.6038C7.09426 83.6038 4.9642 87.4977 7.49444 90.8016C9.82616 93.8482 17.0309 95.1708 17.0309 95.1708L20.3993 88.9567Z" fill="#FCBDB6"/>
<path d="M15.4677 85.5915C15.4576 85.5915 15.4476 85.5894 15.4384 85.5854C15.4292 85.5813 15.4209 85.5754 15.4141 85.568C13.7803 83.8266 11.1729 83.8235 11.1508 83.8251C11.141 83.8257 11.1311 83.8243 11.1219 83.821C11.1126 83.8176 11.1041 83.8124 11.097 83.8056C11.0899 83.7988 11.0843 83.7906 11.0805 83.7815C11.0768 83.7724 11.075 83.7627 11.0752 83.7529C11.0752 83.7332 11.083 83.7143 11.0968 83.7002C11.1106 83.6861 11.1295 83.678 11.1493 83.6776C11.176 83.6776 13.8449 83.6776 15.5228 85.466C15.5298 85.4729 15.5354 85.4811 15.5392 85.4901C15.543 85.4991 15.5449 85.5088 15.5449 85.5186C15.5449 85.5284 15.543 85.5381 15.5392 85.5471C15.5354 85.5561 15.5298 85.5643 15.5228 85.5711C15.5155 85.578 15.5068 85.5834 15.4973 85.5869C15.4879 85.5904 15.4778 85.592 15.4677 85.5915Z" fill="#F9A6A0"/>
<path d="M218.733 75.3675L217.649 66.7595L219.013 65.2565C218.98 65.2565 214.303 66.8254 210.288 64.9632C204.962 62.497 200.501 57.938 198.798 51.1434L193.153 52.786C199.334 74.3258 218.27 75.3864 218.733 75.3675Z" fill="#FCBDB6"/>
<path d="M192.038 46.233C192.87 45.5443 193.141 48.8012 193.141 48.8012C193.141 48.8012 192.983 46.2487 193.625 45.5726C194.132 45.0345 194.668 47.3453 194.864 48.307H194.891C194.779 47.35 194.576 45.0266 195.233 44.6705C195.97 44.2673 196.379 47.4944 196.453 48.078H196.462C196.268 42.3235 197.913 46.1671 198.205 48.8937C198.609 48.4639 201.04 48.1219 201.33 48.3368C201.666 48.5832 200.175 49.8774 199.879 50.1692C199.155 50.8815 199.011 51.8337 199.3 52.8613C199.413 53.2613 193.546 53.6065 193.546 53.6065C193.044 52.6471 192.655 51.6332 192.386 50.5849C192.336 50.4733 192.299 50.3557 192.278 50.2351C192.246 50.0782 192.202 49.8649 192.153 49.6264C191.918 48.4686 191.57 46.6205 192.038 46.233Z" fill="#FCBDB6"/>
<path d="M195.448 52.0361C195.428 52.0359 195.409 52.0289 195.395 52.0163C195.38 52.0036 195.37 51.9862 195.367 51.9671C195.367 51.9577 195.24 51.0603 196.009 50.6681C196.713 50.3088 197.436 49.5213 197.442 49.5135C197.457 49.4985 197.478 49.4901 197.499 49.4901C197.52 49.4901 197.541 49.4985 197.556 49.5135C197.571 49.5284 197.579 49.5487 197.579 49.5699C197.579 49.5911 197.571 49.6114 197.556 49.6264C197.526 49.6593 196.806 50.4437 196.075 50.8155C195.411 51.1544 195.515 51.9137 195.52 51.9483C195.522 51.9587 195.522 51.9694 195.519 51.9797C195.517 51.99 195.512 51.9996 195.506 52.0081C195.499 52.0166 195.491 52.0238 195.482 52.0291C195.473 52.0345 195.463 52.0379 195.452 52.0392L195.448 52.0361Z" fill="#F9A6A0"/>
<path d="M221.435 153.537C221.435 153.537 221.38 155.755 219.86 156.381C218.34 157.007 213.939 157.572 215.584 158.998C216.529 159.815 220.975 159.287 222.23 159.287C223.484 159.287 224.665 159.828 225.598 158.998C226.624 158.083 225.598 153.537 225.598 153.537C225.598 153.537 224.514 154.096 223.54 154.07C222.137 154.034 221.435 153.537 221.435 153.537Z" fill="#333333"/>
<path d="M238.879 153.537C238.879 153.537 238.822 155.755 237.304 156.381C235.785 157.007 231.385 157.572 233.029 158.998C233.975 159.815 238.419 159.287 239.675 159.287C240.931 159.287 242.109 159.828 243.042 158.997C244.069 158.083 243.042 153.537 243.042 153.537C243.042 153.537 241.959 154.094 240.984 154.069C239.58 154.034 238.879 153.537 238.879 153.537Z" fill="#333333"/>
<path d="M210.147 92.7297C210.147 92.7297 209.866 102.014 212.864 119.826C215.031 132.691 217.591 145.643 218.84 151.854C219.048 152.927 219.614 153.899 220.445 154.613C221.276 155.328 222.325 155.742 223.422 155.79L224.625 155.837C227.048 155.934 229.016 153.876 228.838 151.43L225.796 109.403L225.046 95.5708L210.147 92.7297Z" fill="#24555E"/>
<path d="M237.579 100.9C237.442 102.03 230.975 101.893 223.058 100.9C215.141 99.907 208.978 98.2142 209.117 97.0847C209.255 95.9551 215.642 95.8171 223.559 96.807C231.476 97.7969 237.718 99.7705 237.579 100.9Z" fill="#333333"/>
<path d="M219.238 99.3611L236.14 153.015C236.476 154.103 237.149 155.058 238.062 155.745C238.975 156.431 240.082 156.813 241.225 156.838L242.24 156.855C244.639 156.896 246.473 154.704 246.035 152.32L236.789 101.903C236.725 101.61 236.583 101.34 236.377 101.122C236.172 100.903 235.911 100.744 235.623 100.66C232.453 99.7595 218.926 97.1428 219.238 99.3611Z" fill="#24555E"/>
<path d="M238.658 97.1145L234.826 92.7218C234.894 92.681 242.417 87.9871 241.697 81.304C241.32 77.8212 239.207 75.0177 235.415 72.9751C233.528 71.9729 231.503 71.2515 229.406 70.8337L230.307 65.1263C233.031 65.6431 235.659 66.5693 238.103 67.8733C243.587 70.829 246.795 75.2562 247.379 80.678C247.852 85.0566 246.302 89.41 242.899 93.2693C240.457 96.0273 240.565 96.1936 238.658 97.1145Z" fill="#FCBDB6"/>
<path d="M234.935 70.0084C234.935 70.0084 232.687 63.7551 224.676 64.0469C216.664 64.3387 210.615 74.7353 209.116 97.0956C209.116 97.0956 222.235 94.253 237.603 100.884C237.603 100.88 238.455 79.1217 234.935 70.0084Z" fill="#8BC0CC"/>
<path d="M241.229 68.686L234.887 73.2214C234.887 73.2214 218.067 79.2833 214.967 76.8705C209.815 72.8637 212.687 65.404 212.687 65.404C212.687 65.404 215.386 65.6628 222.625 64.2948C223.302 64.1702 223.986 64.0853 224.673 64.0407C225.854 63.9625 227.04 63.9882 228.217 64.1175C235.147 64.8565 241.229 68.686 241.229 68.686Z" fill="#8BC0CC"/>
<path d="M241.229 68.686C241.572 69.177 240.431 70.5905 238.681 71.844C236.931 73.0975 235.231 73.7124 234.887 73.2214C234.544 72.7304 235.684 71.3169 237.435 70.065C239.185 68.813 240.885 68.1949 241.229 68.686Z" fill="#333333"/>
<path d="M245.546 82.8226C244.964 82.8226 244.493 82.1668 244.493 81.3589C244.493 80.5509 244.966 79.8952 245.546 79.8952C246.125 79.8952 246.596 80.5509 246.596 81.3589C246.596 82.1668 246.125 82.8226 245.546 82.8226ZM245.546 80.1697C245.117 80.1697 244.77 80.7031 244.77 81.3589C244.77 82.0146 245.117 82.548 245.546 82.548C245.974 82.548 246.321 82.0146 246.321 81.3589C246.321 80.7031 245.973 80.1713 245.546 80.1713V80.1697Z" fill="#F9A6A0"/>
<path d="M228.206 64.116C227.786 64.074 227.385 63.9219 227.044 63.6752C226.703 63.4285 226.434 63.0961 226.265 62.7119L225.196 60.2614L224.881 59.5492L223.06 55.3667L223.375 59.7013L223.566 62.3025L223.619 63.0445C223.641 63.3386 223.552 63.6302 223.369 63.8623C223.187 64.0945 222.923 64.2504 222.631 64.2996H222.62C222.296 64.8204 221.848 65.8794 223.188 66.2998C224.763 66.794 227.303 65.5718 228.215 64.1223L228.206 64.116Z" fill="#FCBDB6"/>
<path d="M237.915 90.7702C237.915 90.7702 235.541 88.6225 233.661 88.8123C231.782 89.0022 229.538 90.6447 230.724 90.7702C231.911 90.8957 233.474 90.6447 233.474 90.6447C233.474 90.6447 230.165 91.3397 230.663 92.0331C231.161 92.7265 234.036 92.0974 234.036 92.0974C234.036 92.0974 230.162 93.2333 230.85 93.74C231.539 94.2467 234.474 93.3603 234.474 93.3603C234.474 93.3603 230.914 94.5605 231.726 95.1284C232.539 95.6963 234.662 94.1181 235.163 94.8146C235.664 95.5112 236.599 98.2252 238.723 97.0879L237.915 90.7702Z" fill="#FCBDB6"/>
<path d="M226.792 123.344L223.157 112.423C222.351 109.982 220.664 107.926 218.423 106.653L218.563 106.408C220.865 107.716 222.598 109.828 223.425 112.335L227.061 123.256L226.792 123.344Z" fill="#333333"/>
<path d="M236.056 73.3061C236.056 73.3061 235.705 72.2644 237.298 71.1098C238.891 69.9551 240.956 69.6884 240.956 69.6884L241.375 71.6777L239.122 72.6409L236.056 73.3061Z" fill="#FCBDB6"/>
<path d="M228.021 54.6529C228.021 54.6529 227.851 55.3651 228.265 56.8226C228.87 58.9561 226.404 59.8457 225.773 59.237C225.694 59.1617 225.798 55.5346 225.798 55.5346L226.586 55.0718L228.021 54.6529Z" fill="#501506"/>
<path d="M225.2 60.1892V60.2614C225.096 61.6577 223.584 62.3103 223.584 62.3103L223.574 62.3025L223.384 59.7014C223.847 59.5335 224.506 59.3625 224.89 59.5445C225.087 59.648 225.213 59.8425 225.2 60.1892Z" fill="#333333"/>
<path d="M222.866 61.0835C225.142 61.0835 226.987 58.8344 226.987 56.0601C226.987 53.2858 225.142 51.0368 222.866 51.0368C220.589 51.0368 218.744 53.2858 218.744 56.0601C218.744 58.8344 220.589 61.0835 222.866 61.0835Z" fill="#FCBDB6"/>
<path d="M221.232 52.204C221.347 52.3608 220.698 54.9431 225.544 55.5597C230.39 56.1762 227.477 50.3669 223.903 50.2366C218.741 50.0468 217.99 53.4763 218.486 54.7109C218.982 55.9456 221.232 52.204 221.232 52.204Z" fill="#501506"/>
<path d="M228.7 49.0271C228.7 49.0271 226.524 50.4657 228.197 51.8196C229.87 53.1735 234.477 53.7665 233.221 56.0554C231.966 58.3443 230.877 61.7267 233.138 62.1502C235.399 62.5738 236.821 62.4044 237.741 64.1897C238.661 65.975 242.764 64.8659 242.43 62.7495C242.096 60.6332 245.611 58.7726 244.103 56.8257C242.595 54.8788 238.913 53.186 237.992 50.6461C237.07 48.1062 230.456 47.9258 228.7 49.0271Z" fill="#501506"/>
<path d="M225.01 54.7376C225.01 54.7376 226.989 56.8006 226.303 58.9091C226.303 58.9091 227.45 57.6682 227.477 57.2054C227.504 56.7426 227.197 55.0718 227.197 55.0718L225.01 54.7376Z" fill="#501506"/>
<path d="M226.434 56.8179C225.961 57.2587 225.314 57.3042 224.977 56.9183C224.64 56.5323 224.742 55.8656 225.208 55.4248C225.675 54.9839 226.329 54.9384 226.667 55.3244C227.006 55.7103 226.9 56.377 226.434 56.8179Z" fill="#FCBDB6"/>
<path d="M241.425 64.8659C241.414 64.8681 241.402 64.8681 241.39 64.8659C240.804 64.6431 240.458 64.3607 240.329 64.0046C240.133 63.4634 240.47 62.8704 240.826 62.2428C241.141 61.6937 241.457 61.1243 241.384 60.6144C241.293 60.012 240.491 59.8708 239.651 59.7217C238.936 59.5962 238.195 59.466 237.904 59.0126C237.834 58.8914 237.79 58.7567 237.776 58.6174C237.762 58.4781 237.777 58.3375 237.822 58.2047C237.915 57.8486 238.03 57.5301 238.137 57.221C238.61 55.8954 238.989 54.8474 236.886 52.4503C234.187 49.3723 231.952 49.2248 229.938 49.5228C229.703 49.5574 229.106 49.8602 229.109 50.13C229.109 50.2696 229.303 50.6163 231.05 50.8344C231.857 51.066 232.602 51.4707 233.235 52.0201C233.867 52.5695 234.371 53.2503 234.71 54.0144C235.341 55.4059 234.446 56.8932 233.729 58.0933C233.256 58.8934 232.834 59.5868 232.962 60.0512C232.991 60.1412 233.038 60.2242 233.101 60.2947C233.165 60.3652 233.242 60.4218 233.329 60.4607C233.827 60.7044 234.353 60.8892 234.895 61.0113C236.257 61.3753 237.668 61.7534 237.844 64.1788C237.846 64.2045 237.837 64.2299 237.821 64.2495C237.804 64.2691 237.78 64.2815 237.754 64.2839C237.728 64.2848 237.703 64.2759 237.683 64.259C237.664 64.2422 237.651 64.2185 237.649 64.1929C237.482 61.9055 236.259 61.5777 234.844 61.1996C234.288 61.0737 233.748 60.8831 233.236 60.6317C233.126 60.5806 233.028 60.5071 232.949 60.4161C232.869 60.325 232.81 60.2184 232.774 60.103C232.616 59.557 233.058 58.8322 233.562 57.9929C234.291 56.7755 235.118 55.3965 234.532 54.0975C234.206 53.3619 233.723 52.7061 233.116 52.1761C232.509 51.646 231.792 51.2545 231.017 51.0289C229.61 50.8548 228.919 50.5583 228.914 50.1363C228.909 49.7143 229.651 49.3707 229.91 49.333C231.977 49.0271 234.272 49.1762 237.034 52.3248C239.213 54.8098 238.819 55.9032 238.321 57.2901C238.213 57.5944 238.099 57.9098 238.006 58.2581C237.969 58.3646 237.954 58.4779 237.964 58.5905C237.974 58.703 238.007 58.8122 238.063 58.9107C238.309 59.2935 239.008 59.4158 239.681 59.5382C240.559 59.6951 241.468 59.852 241.581 60.5924C241.668 61.1698 241.329 61.7675 241 62.3464C240.67 62.9253 240.351 63.4885 240.516 63.9466C240.625 64.2462 240.934 64.491 241.461 64.6918C241.485 64.7016 241.505 64.7203 241.515 64.7439C241.526 64.7676 241.527 64.7944 241.518 64.8188C241.508 64.8345 241.495 64.8472 241.478 64.8555C241.462 64.8638 241.443 64.8674 241.425 64.8659Z" fill="white"/>
<path d="M225.582 54.0363C225.02 54.0197 224.47 53.8705 223.977 53.6011C223.484 53.3316 223.062 52.9496 222.746 52.4864C222.732 52.4645 222.728 52.4382 222.734 52.4132C222.74 52.3882 222.756 52.3666 222.777 52.353C222.8 52.3395 222.826 52.3353 222.852 52.3411C222.877 52.347 222.899 52.3625 222.913 52.3844C222.922 52.3985 223.825 53.8057 225.579 53.8418C225.605 53.8426 225.629 53.8536 225.647 53.8724C225.665 53.8912 225.675 53.9163 225.675 53.9422C225.674 53.9667 225.664 53.9899 225.647 54.0074C225.629 54.0248 225.606 54.0352 225.582 54.0363Z" fill="white"/>
<path d="M233.503 90.709L233.456 90.5788C233.494 90.5647 234.401 90.2337 234.912 90.5882L234.833 90.7012C234.395 90.3874 233.513 90.7059 233.503 90.709Z" fill="#F9A6A0"/>
<path d="M234.068 92.1617L234.018 92.0331C234.054 92.019 234.933 91.6817 235.733 92.0331L235.678 92.1602C234.93 91.8307 234.081 92.1586 234.068 92.1617Z" fill="#F9A6A0"/>
<path d="M234.504 93.4246L234.455 93.296C234.501 93.2787 235.58 92.885 236.086 93.307L235.997 93.4136C235.552 93.0356 234.513 93.4215 234.504 93.4246Z" fill="#F9A6A0"/>
<path d="M210.29 98.0997C210.29 98.0997 213.969 97.5945 219.494 97.9977C224.834 98.4096 230.129 99.2735 235.321 100.58L232.605 101.032L215.59 101.697L212.165 98.9218L210.29 98.0997Z" fill="#24555E"/>
<path d="M220.59 59.306C221.547 59.3042 222.497 59.1501 223.405 58.8495C223.405 58.8495 223.522 60.2206 221.997 60.3132C221.111 60.3712 220.59 59.306 220.59 59.306Z" fill="#E9633E"/>
<path d="M220.59 59.306C220.59 59.306 220.93 59.5853 221.724 59.5821C222.518 59.579 223.405 58.8495 223.405 58.8495C223.405 58.8495 221.708 59.3154 220.59 59.306Z" fill="white"/>
<path d="M222.466 56.1088C222.452 56.1047 222.439 56.0977 222.428 56.0882C222.417 56.0787 222.409 56.067 222.403 56.0538C222.394 56.0309 222.394 56.0055 222.404 55.9829C222.414 55.9603 222.432 55.9424 222.455 55.933C222.659 55.8387 222.888 55.8139 223.108 55.8624C223.327 55.9109 223.525 56.03 223.67 56.2013C223.687 56.2186 223.696 56.242 223.696 56.2664C223.696 56.2908 223.687 56.3142 223.67 56.3315C223.651 56.3469 223.627 56.3554 223.603 56.3554C223.578 56.3554 223.554 56.3469 223.536 56.3315C223.234 56.1496 222.88 56.0713 222.529 56.1088C222.508 56.1157 222.486 56.1157 222.466 56.1088Z" fill="#080435"/>
<path d="M223.209 57.1269C223.209 57.3482 223.091 57.5301 222.929 57.5364C222.766 57.5427 222.629 57.3654 222.614 57.1458C222.598 56.9261 222.732 56.741 222.894 56.7363C223.056 56.7316 223.2 56.9057 223.209 57.1269Z" fill="#080435"/>
<path d="M219.121 56.5919C219.106 56.5936 219.091 56.5919 219.077 56.587C219.064 56.5821 219.051 56.5741 219.041 56.5637C219.023 56.5464 219.014 56.523 219.014 56.4986C219.014 56.4742 219.023 56.4508 219.041 56.4335C219.193 56.2691 219.396 56.1594 219.618 56.1214C219.839 56.0834 220.067 56.1192 220.266 56.2233C220.289 56.2336 220.306 56.2521 220.315 56.2749C220.324 56.2978 220.323 56.3231 220.314 56.3456C220.302 56.3669 220.283 56.3834 220.26 56.392C220.237 56.4007 220.212 56.4009 220.189 56.3927C219.84 56.3386 219.482 56.3998 219.171 56.5668C219.157 56.5801 219.14 56.5889 219.121 56.5919Z" fill="#080435"/>
<path d="M220.198 57.254C220.29 57.4548 220.244 57.6713 220.096 57.7372C219.948 57.8031 219.754 57.6933 219.663 57.4924C219.571 57.2916 219.615 57.0736 219.764 57.0077C219.912 56.9418 220.107 57.0516 220.198 57.254Z" fill="#080435"/>
<path d="M213.196 75.2703C213.184 75.2718 213.173 75.2718 213.161 75.2703C213.137 75.2605 213.118 75.2418 213.107 75.2181C213.097 75.1944 213.096 75.1676 213.105 75.1432C213.755 73.5863 214.488 72.0645 215.299 70.5842C215.312 70.5614 215.333 70.5446 215.358 70.5372C215.383 70.5299 215.41 70.5326 215.433 70.545C215.456 70.5573 215.473 70.5781 215.48 70.6028C215.488 70.6275 215.485 70.6541 215.473 70.6768C214.664 72.1493 213.934 73.6638 213.287 75.2138C213.279 75.2311 213.266 75.2456 213.25 75.2557C213.234 75.2657 213.215 75.2708 213.196 75.2703Z" fill="#333333"/>
<path d="M214.274 19.96C214.274 19.96 224.6 16.8616 226.065 18.0508C227.685 19.3655 230.981 31.6995 230.319 39.7538C229.951 44.2893 228.364 44.7427 226.002 44.7741L215.621 44.8792L214.274 19.96Z" fill="#24555E"/>
<path d="M215.436 20.1405C214.549 19.7091 207.603 18.9513 204.003 14.8175C200.119 10.3589 199.539 2.38462 195.576 3.50946C191.731 4.59979 193.628 19.1207 193.746 19.9977C193.747 20.0031 193.747 20.0086 193.746 20.0139C193.744 20.0192 193.742 20.0242 193.738 20.0285C193.735 20.0328 193.731 20.0363 193.726 20.0388C193.721 20.0414 193.716 20.0428 193.71 20.0432C192.889 20.1248 182.258 21.4363 179.52 23.7801C176.47 26.3907 179.38 29.6789 179.38 29.6789C178.332 30.1087 174.376 33.2056 179.788 37.2469C179.8 37.257 179.808 37.2715 179.81 37.2873C179.811 37.3032 179.807 37.319 179.797 37.3316C179.246 38.2101 176.154 42.2483 182.981 44.2485C182.981 44.2485 180.864 48.9157 185.8 49.835C190.736 50.7544 214.026 46.495 215.628 44.8713C219.51 40.932 219.287 22.0105 215.436 20.1405Z" fill="#FF4B42"/>
<path d="M101.499 49.3597C101.499 49.3597 103.609 48.5141 104.981 50.5049C106.353 52.4957 106.242 51.338 108.346 53.6033C110.451 55.8687 107.018 57.0406 107.741 58.953C108.465 60.8654 110.157 60.9705 109.646 63.4869C109.136 66.0033 107.105 65.1389 107.209 66.7359C107.313 68.333 108.436 69.7888 106.599 70.1543C104.762 70.5199 104.222 70.421 103.18 72.7413C102.139 75.0616 98.8636 73.0268 96.3916 73.9964C93.9197 74.9659 87.4964 74.6035 87.0868 73.1649C86.6772 71.7263 81.6687 70.9435 84.106 66.9116C85.4499 64.687 83.3702 65.2079 83.0677 62.304C82.8188 59.9257 85.9918 60.3791 84.6905 58.2517C84.1107 57.3026 83.7688 54.7094 85.9887 53.0888C88.2085 51.4682 87.8131 48.1611 91.2398 48.7745C94.6665 49.3879 95.0052 48.0795 97.0344 47.463C99.0637 46.8464 100.201 49.5699 101.499 49.3597Z" fill="#501506"/>
<path d="M106.612 75.7064L103.045 67.7902L101.095 67.2128C101.123 67.1956 105.938 66.1147 108.397 62.4468C111.66 57.5834 113.092 51.3804 111.001 44.6941L116.681 43.1754C122.641 64.7765 107.017 75.4805 106.612 75.7064Z" fill="#FCBDB6"/>
<path d="M98.221 153.928C98.221 153.928 98.2715 156.104 99.6673 156.717C101.063 157.33 105.108 157.886 103.597 159.284C102.73 160.087 98.6433 159.568 97.49 159.568C96.3367 159.568 95.2528 160.098 94.3957 159.284C93.4504 158.388 94.3957 153.928 94.3957 153.928C94.3957 153.928 95.3914 154.475 96.2863 154.45C97.5766 154.416 98.221 153.928 98.221 153.928Z" fill="#333333"/>
<path d="M80.1702 151.761C80.1702 151.761 79.4235 153.79 80.4853 154.922C81.5472 156.055 85.0779 158.217 83.1731 158.888C82.0797 159.276 78.4986 157.136 77.4336 156.667C76.3686 156.198 75.1759 156.248 74.6828 155.148C74.1392 153.937 76.6395 150.206 76.6395 150.206C76.6395 150.206 77.358 151.115 78.193 151.461C79.3982 151.948 80.1702 151.761 80.1702 151.761Z" fill="#333333"/>
<path d="M108.594 94.2906C108.594 94.2906 108.495 104.317 107.729 122.008C107.13 135.88 107.256 148.733 106.101 154.827C105.689 157.006 90.441 155.895 90.6048 153.496L94.2143 110.644L94.9028 97.0769L108.594 94.2906Z" fill="#FF7B69"/>
<path d="M83.1984 101.997C83.2267 103.112 89.1537 103.565 96.4829 103.31C103.812 103.054 109.597 101.959 109.569 100.842C109.541 99.725 103.71 99.0159 96.3805 99.2732C89.0513 99.5305 83.1684 100.88 83.1984 101.997Z" fill="#333333"/>
<path d="M100.247 101.708L86.6982 154.811C86.0491 157.007 71.1702 150.831 71.5735 148.49L84.1128 103.286C84.1663 103.006 84.2939 102.746 84.4826 102.532C84.6713 102.318 84.914 102.158 85.1857 102.069C88.0988 101.182 100.533 99.532 100.247 101.708Z" fill="#FF7B69"/>
<path d="M84.8422 70.8776C84.8422 70.8776 90.5911 66.9744 97.9392 67.5925C108.134 68.4522 107.751 70.4399 109.57 100.842C109.57 100.842 97.8132 96.8823 83.1784 101.972C83.1784 101.978 82.5183 85.7484 84.8422 70.8776Z" fill="#49ADB7"/>
<path d="M88.0607 65.6581L87.1406 75.0475C87.1406 75.0475 104.562 80.9463 106.384 77.8322C110.71 70.4399 103.808 65.6581 103.808 65.6581C103.808 65.6581 100.888 67.1548 97.6885 67.0905C96.6267 67.0685 94.5817 66.8567 93.5056 66.7767C91.0006 66.59 88.0607 65.6581 88.0607 65.6581Z" fill="#49ADB7"/>
<path d="M92.5131 132.178L92.25 132.12L96.3841 113.531C97.1105 111.111 98.7009 109.041 100.855 107.709L100.996 107.938C98.8995 109.233 97.3517 111.247 96.644 113.6L92.5131 132.178Z" fill="#333333"/>
<path d="M93.5052 66.7767C93.8659 66.6889 94.1966 66.5068 94.4631 66.2492C94.7295 65.9917 94.922 65.6679 95.0208 65.3114L95.6935 62.9833L95.8889 62.3087L97.0358 58.3365L97.1824 62.2962L97.269 64.6729L97.2942 65.3507C97.3147 65.9029 97.466 66.9713 97.6881 67.0905C97.6881 67.0905 99.0683 67.7384 97.9717 68.253C96.6845 68.8585 94.4079 68.0019 93.4941 66.7798L93.5052 66.7767Z" fill="#FCBDB6"/>
<path d="M95.6832 62.9143C95.6832 62.9362 95.6832 62.9582 95.6942 62.9786C95.9163 64.2336 97.2697 64.676 97.2697 64.676V64.6682L97.1831 62.2915C96.7734 62.1848 96.1984 62.0954 95.8896 62.304C95.7273 62.417 95.6391 62.6005 95.6832 62.9143Z" fill="#333333"/>
<path d="M97.6662 63.5048C99.6045 63.3373 100.998 61.1589 100.778 58.6392C100.559 56.1196 98.8092 54.2128 96.8709 54.3803C94.9326 54.5478 93.5393 56.7262 93.7589 59.2458C93.9785 61.7655 95.7278 63.6723 97.6662 63.5048Z" fill="#FCBDB6"/>
<path d="M99.4674 61.6702C98.6543 61.7635 97.8311 61.7184 97.0332 61.5368C97.0332 61.5368 97.0647 62.7919 98.3677 62.7229C99.1255 62.6821 99.4674 61.6702 99.4674 61.6702Z" fill="white"/>
<path d="M97.6139 58.9483C97.6257 58.9436 97.6364 58.9362 97.6448 58.9266C97.6533 58.9171 97.6594 58.9057 97.6627 58.8934C97.6683 58.872 97.6655 58.8493 97.655 58.8298C97.6445 58.8103 97.627 58.7955 97.606 58.7883C97.4223 58.7236 97.2217 58.7245 97.0386 58.7909C96.8555 58.8573 96.7013 58.9851 96.6024 59.1523C96.5896 59.1701 96.5839 59.1921 96.5866 59.2138C96.5892 59.2356 96.5999 59.2556 96.6166 59.2699C96.6342 59.2815 96.6554 59.2863 96.6763 59.2834C96.6971 59.2805 96.7162 59.2701 96.73 59.2542C96.964 59.0598 97.2587 58.9527 97.5634 58.9515C97.58 58.9568 97.5981 58.9556 97.6139 58.9483Z" fill="#080435"/>
<path d="M97.0814 59.9445C97.0972 60.1469 97.2216 60.2991 97.3603 60.2881C97.4989 60.2771 97.5982 60.1046 97.5825 59.9037C97.5667 59.7029 97.4438 59.5492 97.3052 59.5602C97.1665 59.5712 97.0672 59.7437 97.0814 59.9445Z" fill="#080435"/>
<path d="M100.502 59.0534C100.515 59.0533 100.527 59.0504 100.538 59.0446C100.55 59.0389 100.559 59.0306 100.567 59.0205C100.579 59.0026 100.585 58.9807 100.582 58.9589C100.58 58.9371 100.569 58.9171 100.552 58.9028C100.412 58.77 100.228 58.6904 100.035 58.6777C99.8412 58.6651 99.6492 58.7203 99.4922 58.8338C99.4739 58.8463 99.4609 58.865 99.4557 58.8864C99.4504 58.9078 99.4533 58.9305 99.4638 58.9499C99.4749 58.9675 99.4922 58.9803 99.5124 58.9858C99.5325 58.9913 99.5539 58.9891 99.5725 58.9797C99.8637 58.8955 100.175 58.9155 100.453 59.0362C100.467 59.0471 100.484 59.0532 100.502 59.0534Z" fill="#080435"/>
<path d="M99.6495 59.7609C99.5912 59.9523 99.6495 60.1437 99.7819 60.1892C99.9142 60.2347 100.069 60.1155 100.127 59.9225C100.185 59.7296 100.127 59.5397 99.9945 59.4942C99.8622 59.4487 99.7078 59.5695 99.6495 59.7609Z" fill="#080435"/>
<path d="M88.0951 65.6754C86.789 65.4683 86.1163 67.0654 85.39 70.1042C84.6637 73.143 84.5172 74.409 85.8248 74.6177C87.1325 74.8263 88.4228 73.5728 89.1791 70.5388C89.7352 68.3126 89.4028 65.8825 88.0951 65.6754Z" fill="#333333"/>
<path d="M86.1318 101.821C86.1318 101.821 99.3518 98.4684 108.463 101.7L106.205 103.078L97.8126 103.58L86.1318 101.821Z" fill="#FF7B69"/>
<path d="M93.91 60.0339C94.348 60.3869 94.9073 60.3618 95.1578 59.9806C95.4083 59.5994 95.2555 59.0016 94.8175 58.6487C94.3795 58.2957 93.8202 58.3208 93.5697 58.7035C93.3192 59.0863 93.4721 59.6809 93.91 60.0339Z" fill="#FCBDB6"/>
<path d="M98.6342 55.5503C98.6342 55.5503 98.5916 56.8618 97.2635 56.89C97.2635 56.89 97.4068 57.9568 96.0929 57.8313C96.0929 57.8313 96.263 58.5436 95.3571 58.713C95.3571 58.713 95.0562 59.455 93.9944 59.1303C92.9325 58.8055 92.1951 56.6939 93.1845 55.4624C94.1739 54.2309 96.9027 53.0511 98.631 53.7367C100.359 54.4223 101.604 58.0321 101.188 58.2863C100.772 58.5404 99.7858 58.4165 99.6535 57.6023C99.6535 57.6023 98.7445 57.3277 98.9162 56.4461C98.7671 56.1675 98.6715 55.8637 98.6342 55.5503Z" fill="#501506"/>
<path d="M94.0916 63.0241H94.0318C93.4016 62.9959 92.8139 62.5535 92.7351 62.0452C92.5918 61.1211 93.3826 60.2787 93.4173 60.2442C93.4347 60.227 93.4582 60.2174 93.4827 60.2174C93.5072 60.2174 93.5307 60.227 93.5481 60.2442C93.565 60.2619 93.5745 60.2855 93.5745 60.31C93.5745 60.3346 93.565 60.3582 93.5481 60.376C93.5402 60.376 92.7855 61.1886 92.9179 62.0216C92.9825 62.4421 93.4961 62.8186 94.0381 62.8437C94.6446 62.8735 95.0999 62.4609 95.2874 61.7142C95.4308 61.1494 95.3803 60.685 95.1424 60.3305C94.7769 59.7892 94.0806 59.6857 94.0743 59.6857C94.0622 59.6839 94.0505 59.6799 94.04 59.6736C94.0295 59.6674 94.0203 59.6591 94.013 59.6494C94.0057 59.6396 94.0003 59.6285 93.9973 59.6167C93.9943 59.6049 93.9937 59.5926 93.9955 59.5806C93.999 59.5565 94.0119 59.5348 94.0314 59.5201C94.0508 59.5054 94.0753 59.499 94.0995 59.5021C94.577 59.5802 95.0056 59.8394 95.2953 60.2254C95.5647 60.6254 95.623 61.1415 95.467 61.7596C95.185 62.8782 94.4524 63.0241 94.0916 63.0241Z" fill="#FF7B69"/>
<path d="M99.7953 63.5418C99.568 63.5414 99.3431 63.496 99.1336 63.4084C99.1117 63.3973 99.0951 63.3782 99.0871 63.355C99.0792 63.3319 99.0806 63.3066 99.091 63.2845C99.0964 63.2736 99.1039 63.2638 99.1131 63.2558C99.1222 63.2478 99.1329 63.2416 99.1445 63.2376C99.156 63.2337 99.1682 63.2321 99.1804 63.2329C99.1926 63.2336 99.2045 63.2368 99.2155 63.2422C99.5105 63.3747 99.8431 63.3988 100.154 63.3104C100.465 63.2219 100.735 63.0266 100.915 62.759C101.122 62.4956 101.237 62.1721 101.242 61.8379C101.246 61.5036 101.141 61.1769 100.942 60.9077C100.928 60.8881 100.921 60.8635 100.924 60.8391C100.928 60.8148 100.94 60.7927 100.96 60.7775C100.979 60.7628 101.003 60.7562 101.027 60.7591C101.052 60.762 101.074 60.7743 101.089 60.7932C101.309 61.0961 101.425 61.4612 101.421 61.8349C101.416 62.2085 101.292 62.5709 101.065 62.8688C100.925 63.0755 100.735 63.245 100.514 63.3623C100.293 63.4796 100.046 63.5412 99.7953 63.5418Z" fill="#FF7B69"/>
<path d="M92.8046 48.0497C92.5398 48.0491 92.2758 48.0212 92.0168 47.9666C92.0049 47.9643 91.9935 47.9598 91.9833 47.9531C91.9732 47.9464 91.9645 47.9377 91.9577 47.9276C91.951 47.9176 91.9463 47.9063 91.944 47.8944C91.9417 47.8825 91.9418 47.8702 91.9444 47.8584C91.9468 47.8464 91.9516 47.835 91.9584 47.8249C91.9653 47.8148 91.9742 47.8061 91.9844 47.7994C91.9947 47.7927 92.0061 47.7881 92.0182 47.7858C92.0302 47.7835 92.0426 47.7837 92.0546 47.7862C92.6555 47.9132 93.2792 47.8826 93.8647 47.6975C94.4502 47.5125 94.9774 47.1792 95.3947 46.7304C95.4104 46.7115 95.4329 46.6995 95.4575 46.6971C95.482 46.6948 95.5064 46.7022 95.5255 46.7178C95.5445 46.7334 95.5564 46.7559 95.5588 46.7803C95.5612 46.8047 95.5537 46.8291 95.538 46.848C95.1889 47.2235 94.7662 47.5238 94.2961 47.7304C93.826 47.9371 93.3184 48.0458 92.8046 48.0497Z" fill="#501506"/>
<path d="M107.838 52.3765C107.827 52.3787 107.815 52.3787 107.803 52.3765C106.721 51.8838 105.785 51.1207 105.086 50.1614C103.858 48.4733 102.522 48.7243 102.006 48.9063C101.175 49.2059 100.515 48.602 100.487 48.5753C100.47 48.558 100.46 48.5346 100.46 48.5102C100.46 48.4858 100.47 48.4624 100.487 48.4451C100.504 48.4279 100.528 48.4183 100.552 48.4183C100.577 48.4183 100.6 48.4279 100.618 48.4451C100.618 48.4451 101.224 48.9973 101.946 48.7369C102.502 48.536 103.937 48.2662 105.239 50.0531C105.923 50.9796 106.83 51.7202 107.876 52.2071C107.899 52.2162 107.917 52.2338 107.926 52.2561C107.936 52.2784 107.937 52.3036 107.928 52.3263C107.919 52.3423 107.906 52.3555 107.89 52.3644C107.874 52.3733 107.856 52.3775 107.838 52.3765Z" fill="#501506"/>
<path d="M83.6854 60.2002C83.6709 60.2004 83.6566 60.197 83.6437 60.1905C83.6308 60.1839 83.6197 60.1743 83.6113 60.1626C83.6039 60.153 83.5984 60.1421 83.5953 60.1304C83.5921 60.1188 83.5913 60.1066 83.5929 60.0946C83.5945 60.0826 83.5986 60.0711 83.6047 60.0607C83.6108 60.0503 83.619 60.0412 83.6287 60.0339C84.4747 59.4064 84.2747 58.9719 83.5168 57.7105C82.7291 56.3927 83.8997 54.849 83.9501 54.7847C83.9575 54.7749 83.9668 54.7668 83.9774 54.7606C83.988 54.7545 83.9997 54.7505 84.0119 54.7489C84.024 54.7473 84.0364 54.7481 84.0482 54.7513C84.0601 54.7545 84.0711 54.76 84.0808 54.7674C84.1002 54.7826 84.1129 54.8047 84.1161 54.829C84.1193 54.8533 84.1129 54.8779 84.0982 54.8976C84.0856 54.9117 82.9481 56.4053 83.676 57.6164C84.4464 58.8981 84.7205 59.4472 83.7405 60.1814C83.7248 60.1936 83.7054 60.2002 83.6854 60.2002Z" fill="#501506"/>
<path d="M83.2313 67.1689C83.2186 67.1689 83.206 67.1661 83.1943 67.161C83.1827 67.1559 83.1722 67.1484 83.1636 67.1391C83.1464 67.1218 83.1367 67.0984 83.1367 67.074C83.1367 67.0496 83.1464 67.0262 83.1636 67.0089C84.1893 66.0676 83.4188 65.0918 83.3857 65.051C83.3701 65.0321 83.3626 65.0077 83.365 64.9833C83.3673 64.9589 83.3794 64.9364 83.3984 64.9208C83.4174 64.9052 83.4418 64.8978 83.4663 64.9001C83.4908 64.9025 83.5134 64.9145 83.5291 64.9334C83.787 65.26 83.9063 65.6741 83.8615 66.0872C83.8168 66.5002 83.6115 66.8795 83.2896 67.1438C83.2741 67.1592 83.2533 67.1682 83.2313 67.1689Z" fill="#764678"/>
<path d="M88.4762 55.8938C88.462 55.8938 88.4479 55.8905 88.435 55.8842C88.4222 55.878 88.411 55.8689 88.4022 55.8577C88.3786 55.8248 87.7925 55.0608 87.9154 54.1148C87.991 53.528 88.3234 53.0056 88.9016 52.5632C89.8469 51.8369 90.4629 51.9357 91.1073 52.0376C91.7517 52.1396 92.4039 52.2432 93.5005 51.567C94.6884 50.8297 95.5691 50.8893 96.0985 51.0681C96.441 51.1778 96.7464 51.3798 96.9807 51.6517C96.9955 51.671 97.0022 51.6952 96.9992 51.7193C96.9963 51.7433 96.984 51.7653 96.965 51.7804C96.9454 51.7952 96.9208 51.8019 96.8964 51.799C96.872 51.796 96.8497 51.7837 96.8342 51.7647C96.7901 51.7082 95.7314 50.3982 93.5982 51.7239C92.4418 52.4393 91.717 52.3248 91.0774 52.2228C90.4377 52.1208 89.8957 52.0361 89.0103 52.7122C88.4731 53.1248 88.1643 53.6034 88.0949 54.1399C87.9815 55.009 88.5393 55.7401 88.5456 55.7479C88.5602 55.7673 88.5666 55.7917 88.5633 55.8158C88.5601 55.8398 88.5475 55.8616 88.5282 55.8765C88.5132 55.8877 88.495 55.8938 88.4762 55.8938Z" fill="white"/>
<path d="M105.644 61.9636H105.63C105.606 61.9597 105.584 61.9465 105.57 61.9268C105.555 61.9072 105.549 61.8826 105.553 61.8585C105.684 61.0662 105.284 60.9093 104.619 60.6489C104.297 60.5317 103.986 60.3857 103.691 60.2128C103.45 60.0653 103.333 59.9257 103.324 59.7751C103.31 59.5601 103.519 59.3939 103.76 59.1993C104.088 58.9373 104.46 58.6408 104.434 58.156C104.403 57.5426 104.093 57.4987 103.623 57.4313C103.269 57.4066 102.927 57.2909 102.631 57.0955C102.2 56.7818 102.189 56.3551 102.182 56.0131C102.174 55.671 102.155 55.4922 101.866 55.4545C101.047 55.3463 100.809 54.4097 100.8 54.3689C100.797 54.3572 100.796 54.3449 100.798 54.3329C100.8 54.3209 100.804 54.3094 100.81 54.299C100.816 54.2887 100.825 54.2796 100.835 54.2725C100.844 54.2654 100.856 54.2603 100.868 54.2576C100.891 54.2519 100.916 54.2557 100.937 54.2684C100.958 54.281 100.973 54.3014 100.979 54.325C100.979 54.3344 101.198 55.18 101.89 55.2663C102.352 55.3275 102.363 55.671 102.363 56.0036C102.363 56.3362 102.38 56.6798 102.738 56.9449C103.01 57.1201 103.323 57.2238 103.647 57.2462C104.119 57.3152 104.578 57.3795 104.617 58.1451C104.647 58.724 104.219 59.0675 103.874 59.3421C103.68 59.499 103.499 59.6433 103.505 59.7625C103.505 59.8457 103.604 59.9445 103.785 60.0543C104.072 60.2218 104.373 60.363 104.685 60.4763C105.356 60.7399 105.887 60.947 105.733 61.8883C105.729 61.9091 105.718 61.928 105.702 61.9417C105.686 61.9554 105.666 61.9632 105.644 61.9636Z" fill="white"/>
<path d="M88.6183 65.5091C88.5938 65.5083 88.5706 65.498 88.5535 65.4805C88.5364 65.4629 88.5269 65.4394 88.5269 65.415C88.5427 64.6807 87.9393 64.1693 87.4068 63.716C86.9814 63.3536 86.619 63.0413 86.6332 62.6711C86.6458 62.4405 86.8097 62.2193 87.1374 61.9965C87.6289 61.6623 87.9156 61.2701 87.9913 60.834C88.0464 60.4296 87.9499 60.019 87.7203 59.6809C87.7059 59.6609 87.7 59.636 87.7038 59.6117C87.7077 59.5873 87.7209 59.5655 87.7408 59.5507C87.7606 59.5365 87.7854 59.5306 87.8096 59.5345C87.8338 59.5383 87.8555 59.5514 87.87 59.5711C88.1301 59.9484 88.2386 60.4091 88.174 60.8622C88.0921 61.3517 87.777 61.7847 87.2429 62.1487C86.9656 62.3385 86.827 62.5111 86.8175 62.6805C86.8034 62.9598 87.1326 63.2453 87.5281 63.5763C88.0638 64.0313 88.7302 64.5976 88.7129 65.4181C88.712 65.4425 88.7017 65.4657 88.6841 65.4826C88.6664 65.4996 88.6428 65.5091 88.6183 65.5091Z" fill="white"/>
<path d="M75.8097 53.0997C76.755 49.7676 78.4455 45.9711 78.488 45.8628L83.0743 49.0663L80.0525 47.8709L83.3831 48.3604C82.4567 50.5567 80.2085 57.8737 82.3181 61.9777C83.224 63.741 84.8278 64.913 87.2131 65.5515C87.3888 65.5987 87.5512 65.6855 87.6878 65.8052C87.8244 65.9249 87.9315 66.0742 88.0009 66.2417C88.6206 67.7831 88.7158 69.4843 88.2718 71.0847C87.659 73.2293 86.4695 73.2292 86.4695 73.2292C82.0156 72.1891 72.0931 66.1288 75.8097 53.0997Z" fill="#FCBDB6"/>
<path d="M114.212 36.999C113.143 36.8421 114.612 39.7632 114.612 39.7632C114.612 39.7632 113.412 37.5026 112.514 37.2531C111.799 37.057 112.547 39.3067 112.881 40.2339L112.856 40.2417C112.451 39.3679 111.406 37.2814 110.666 37.3128C109.826 37.3504 111.162 40.3202 111.402 40.8536C108.566 35.8333 109.163 39.9735 110.338 42.4522C109.768 42.2953 107.515 43.2602 107.376 43.5943C107.219 43.9787 109.166 44.3128 109.572 44.4085C110.563 44.6423 111.183 45.3828 111.473 46.4088C111.586 46.8088 116.777 44.0681 116.777 44.0681C116.705 42.9882 116.508 41.9201 116.191 40.885C116.176 40.7635 116.146 40.6444 116.101 40.5304C116.045 40.3735 115.974 40.1774 115.89 39.9468C115.482 38.8471 114.816 37.0884 114.212 36.999Z" fill="#FCBDB6"/>
<path d="M111.591 43.1754C111.591 43.1754 112.634 43.4892 113.448 43.4233C114.263 43.3574 114.592 44.1512 114.592 44.1512L111.591 43.1754Z" fill="#FCBDB6"/>
<path d="M80.9331 40.1946C81.9982 40.0503 80.5077 42.9369 80.5077 42.9369C80.5077 42.9369 81.724 40.7029 82.6173 40.4692C83.3294 40.2809 82.5622 42.5087 82.2219 43.4217L82.2471 43.4296C82.6583 42.5667 83.717 40.5037 84.4528 40.5445C85.2862 40.59 83.9281 43.5253 83.6839 44.054C86.5576 39.1012 85.9164 43.2021 84.7238 45.6526C85.2909 45.4957 86.5088 45.331 86.6411 45.6636C86.7987 46.0479 85.6281 46.8119 85.2657 47.0159C84.4339 47.4865 82.975 48.7416 82.1337 49.1981C81.7697 49.3942 78.3115 47.1884 78.3115 47.1884C78.394 46.1167 78.6007 45.058 78.9275 44.0335C78.9442 43.9133 78.9749 43.7953 79.0189 43.6821C79.0772 43.5252 79.1512 43.3323 79.2363 43.1048C79.6522 42.0176 80.3329 40.2778 80.9331 40.1946Z" fill="#FCBDB6"/>
<path d="M79.1247 21.4175C79.1247 21.4175 68.3437 21.6622 67.3212 23.2452C66.19 24.9944 66.8989 37.7379 70.031 45.1929C71.7956 49.3911 73.4451 49.333 75.7028 48.6255L85.6048 45.5177L79.1247 21.4175Z" fill="#24555E"/>
<path d="M78.0764 21.9462C78.7853 21.2638 85.1535 18.3975 87.2883 13.3554C89.5901 7.91785 87.6569 0.156891 91.7753 0.00157792C95.7691 -0.155304 98.49 14.2417 98.6507 15.1109C98.6516 15.1163 98.6537 15.1214 98.6566 15.126C98.6596 15.1306 98.6635 15.1346 98.6681 15.1377C98.6726 15.1408 98.6778 15.1429 98.6832 15.1439C98.6886 15.145 98.6941 15.1449 98.6995 15.1438C99.5062 14.9681 110.021 12.9302 113.352 14.3123C117.065 15.8513 115.321 19.8769 115.321 19.8769C116.452 19.9616 121.177 21.6842 117.292 27.1986C117.284 27.2119 117.281 27.2276 117.284 27.2428C117.288 27.2579 117.297 27.2713 117.309 27.2802C118.108 27.9454 122.304 30.8304 116.438 34.8403C116.438 34.8403 119.904 38.6243 115.493 41.0214C111.081 43.4186 87.6175 46.5672 85.5883 45.5177C80.6806 42.9715 74.9978 24.916 78.0764 21.9462Z" fill="#FF4B42"/>
</g>
<defs>
<clipPath id="clip0_322_209">
<rect width="263" height="175" fill="white"/>
</clipPath>
</defs>
</svg>
